/* XPM */
static char *bc7205e96182452edeeb16f64d7744928m6VKFoD3utOfYLt[] = {
/* columns rows colors chars-per-pixel */
"32 32 156 2 ",
"   c None",
".  c #550000",
"X  c #5E0000",
"o  c #55000D",
"O  c #400315",
"+  c #6C0102",
"@  c #760000",
"#  c #7B0103",
"$  c #7D030B",
"%  c #7C0615",
"&  c #78071D",
"*  c #7D091F",
"=  c #7E1117",
"-  c #77161A",
";  c #7F171A",
":  c #761B1F",
">  c #641C3F",
",  c #54202D",
"<  c #231F43",
"1  c #201F4D",
"2  c #381941",
"3  c #3D1F49",
"4  c #252144",
"5  c #242149",
"6  c #372147",
"7  c #3F2247",
"8  c #372C4C",
"9  c #232251",
"0  c #292355",
"q  c #2D2856",
"w  c #212F5D",
"e  c #2D2D5A",
"r  c #312750",
"t  c #312B59",
"y  c #3F2F5B",
"u  c #2A315F",
"i  c #34315F",
"p  c #243565",
"a  c #283362",
"s  c #253B6C",
"d  c #343363",
"f  c #3A3463",
"g  c #373768",
"h  c #383768",
"j  c #3B3A6B",
"k  c #3E3E71",
"l  c #4B1F43",
"z  c #581D41",
"x  c #532749",
"c  c #6A2146",
"v  c #6F244B",
"b  c #7D254B",
"n  c #75375B",
"m  c #4E3967",
"M  c #423C6E",
"N  c #413F71",
"B  c #354478",
"V  c #39467C",
"C  c #3D4879",
"Z  c #434174",
"A  c #494577",
"S  c #46457A",
"D  c #4A467B",
"F  c #4A497D",
"G  c #5C467E",
"H  c #840003",
"J  c #8C0003",
"K  c #820109",
"L  c #8C010B",
"P  c #930102",
"I  c #9C0002",
"U  c #93010E",
"Y  c #9A020C",
"T  c #820210",
"R  c #930313",
"E  c #9C0313",
"W  c #9F0618",
"Q  c #950A1D",
"!  c #93151C",
"~  c #A40103",
"^  c #AD0200",
"/  c #A40008",
"(  c #AC000C",
")  c #B20003",
"_  c #BA0000",
"`  c #B0030D",
"'  c #B9010A",
"]  c #A20314",
"[  c #AA0417",
"{  c #A60618",
"}  c #AC0418",
"|  c #A5081D",
" . c #AA0B1B",
".. c #BC0C14",
"X. c #B3051B",
"o. c #BA061D",
"O. c #B30C1D",
"+. c #B1131F",
"@. c #820A23",
"#. c #9C1E24",
"$. c #901431",
"%. c #AD0A21",
"&. c #B30D22",
"*. c #BD0A23",
"=. c #AD1B25",
"-. c #BC1126",
";. c #B51820",
":. c #BF1E28",
">. c #882325",
",. c #B3222C",
"<. c #B62731",
"1. c #B32831",
"2. c #C30003",
"3. c #C40722",
"4. c #C20B23",
"5. c #CC0924",
"6. c #CC0E2B",
"7. c #D30E2A",
"8. c #C9152D",
"9. c #C7192F",
"0. c #CC1931",
"q. c #C0212B",
"w. c #C22630",
"e. c #892349",
"r. c #972146",
"t. c #A02145",
"y. c #AE2044",
"u. c #CA2548",
"i. c #95464A",
"p. c #984649",
"a. c #9E4D79",
"s. c #424A80",
"d. c #4D4C82",
"f. c #504680",
"g. c #514E84",
"h. c #574F89",
"j. c #4E5087",
"k. c #55538B",
"l. c #58548F",
"z. c #575690",
"x. c #5A5692",
"c. c #5A5A94",
"v. c #5E5D99",
"b. c #615D96",
"n. c #6D5D96",
"m. c #605F9B",
"M. c #5E619D",
"N. c #64639B",
"B. c #6564A1",
"V. c #6C6DA6",
"C. c #6B6CA4",
"Z. c #6B6BA8",
"A. c #6E6EAA",
"S. c #6F6FAD",
"D. c #6670A8",
"F. c #7470AF",
/* pixels */
"      w.<.9.                                                    ",
"    O.' ) ) ..+.                                                ",
"  +.~ I ~ ~ ~ ^ <.                                              ",
"  ` P P P I P P )           N.N.N.C.                            ",
"1.( P P H H J # c f.h.l.x.m.B.Z.A.V.Z.Z.A.C.C.                  ",
",./ P J # + o 7 D z.b.l.c.v.N.N.v.v.v.v.v.B.Z.S.V.A.            ",
" .I @ # @ O M F g.h.d.l.c.l.z.z.z.z.c.c.v.c.v.v.B.F.D.a.        ",
"=.Y @ $ + < g.h.A e Z d.F F d.d.k.k.l.z.z.c.c.c.b.M.n.u.5.      ",
"  #.H + . 4 A h 1 M d.Z N Z D d.j.d.k.l.k.k.l.x.c.k.y.2.7.8.    ",
"    ! # , 4 f 9 j F j k N Z D d.d.d.d.g.j.k.k.k.g.r.' -.3.7.0.  ",
"        8 t q Z D g d j C Z F F S S d.d.d.d.g.s.r._ &.o.o.4.7.  ",
"        t 5 Z F g d d e g j Z S S S Z F F F V e.) &.X.X.*.4.3.9.",
"        A F F d d u t d g j j j C Z Z Z A V b ^ | } [ X.o.o.5.9.",
"        b.g.j d i i d g g g d j j j Z N s v ~ ] ] ] [ } X.o.4.  ",
"        F h i i i a d d d d d h j j M p c I E E E ] ] } X.4.    ",
"        F Z j d d d d d d d d d g M p > P R R E Y E ] ] o.-.    ",
"          Z g h g d d i d d d d f a z J R L U U U E ] o.&.      ",
"          A g j j g d d i i i f a l J L L U U U U E } O.        ",
"            F h j j g d i i i u 7 H K L U L U L E ]  .          ",
"              Z C k g d i i u 6 $ H K L L U L U U [             ",
"                S k j d i e 2 % H $ L L L L L U {               ",
"                S M j f w x >.@ $ H K U L U L ]                 ",
"                D Z M d r & p.: @ $ L H L J |                   ",
"                  F k y * # = i.- H # L J W                     ",
"                  C m @.H $ @ - @.@ K K W                       ",
"                  n $.J $ # $ @ # K # E                         ",
"                    R T $ # # $ # H R                           ",
"                    Q U K # # $ H R                             ",
"                      R K $ # L R                               ",
"                      Q R K L R                                 ",
"                        E U !                                   ",
"                        Q Q                                     "
};
