/* XPM */
static char *c69b9a87f0294007b08ae20dcd3d4cb1hH30rcdrBhYQrW2j[] = {
/* columns rows colors chars-per-pixel */
"32 32 200 2 ",
"   c None",
".  c #1B1B1D",
"X  c #291E1A",
"o  c #261D1A",
"O  c #2D211B",
"+  c #22201E",
"@  c #3C291B",
"#  c #31241D",
"$  c #1F212A",
"%  c #1F2634",
"&  c #232322",
"*  c #282527",
"=  c #3B322D",
"-  c #21293C",
";  c #222734",
":  c #343537",
">  c #302C2A",
",  c #4C331E",
"<  c #432F22",
"1  c #493627",
"2  c #533A27",
"3  c #453D3A",
"4  c #574338",
"5  c #514A23",
"6  c #6F5C3E",
"7  c #735F36",
"8  c #6D622F",
"9  c #726539",
"0  c #242D42",
"q  c #2B3245",
"w  c #26334C",
"e  c #313645",
"r  c #373C46",
"t  c #2C3955",
"y  c #2B3B5B",
"u  c #293653",
"i  c #333C52",
"p  c #303E5B",
"a  c #2B3E61",
"s  c #413E46",
"d  c #3C4354",
"f  c #37425B",
"g  c #2E4064",
"h  c #2F446A",
"j  c #334363",
"k  c #32466C",
"l  c #35486D",
"z  c #3A4B6B",
"x  c #3A4966",
"c  c #334770",
"v  c #354A72",
"b  c #394E76",
"n  c #3C4F78",
"m  c #20507D",
"M  c #3D5279",
"N  c #39566F",
"B  c #4B494B",
"V  c #464447",
"C  c #524C4A",
"Z  c #5F5C49",
"A  c #424A58",
"S  c #5B565B",
"D  c #4F535A",
"F  c #675C47",
"G  c #785A46",
"H  c #615D52",
"J  c #755F51",
"K  c #53615F",
"L  c #6C6154",
"P  c #626A5B",
"I  c #73645A",
"U  c #736442",
"Y  c #424F63",
"T  c #485365",
"R  c #43567D",
"E  c #475776",
"W  c #675E63",
"Q  c #5E656D",
"!  c #5B6577",
"~  c #6A6264",
"^  c #7C6E6C",
"/  c #736869",
"(  c #7F706B",
")  c #657376",
"_  c #8A7929",
"`  c #806B3E",
"'  c #887236",
"]  c #866C5B",
"[  c #8A6A53",
"{  c #88725A",
"}  c #95755B",
"|  c #846F4E",
" . c #897568",
".. c #917D73",
"X. c #8B7363",
"o. c #A37E65",
"O. c #A48E2A",
"+. c #AB9155",
"@. c #9E8678",
"#. c #94847C",
"$. c #989D7B",
"%. c #898B7C",
"&. c #A3826B",
"*. c #AF886E",
"=. c #A58066",
"-. c #AC8A74",
";. c #A58A79",
":. c #B28C75",
">. c #B3927C",
",. c #BD967D",
"<. c #BA9075",
"1. c #BBBC7E",
"2. c #B1B06E",
"3. c #C39E5D",
"4. c #C9AA58",
"5. c #CFB356",
"6. c #DDBB54",
"7. c #DAB457",
"8. c #DBAD5E",
"9. c #C59F61",
"0. c #C49A7D",
"q. c #C99D7E",
"w. c #D7AC66",
"e. c #DEB26F",
"r. c #DEAF7F",
"t. c #DFB076",
"y. c #E4B377",
"u. c #E1B661",
"i. c #E4C152",
"p. c #C6C27D",
"a. c #355E87",
"s. c #275581",
"d. c #3B628B",
"f. c #3D6690",
"g. c #4C5D83",
"h. c #4B6C8B",
"j. c #536587",
"k. c #446B94",
"l. c #4A7498",
"z. c #547593",
"x. c #677684",
"c. c #717C86",
"v. c #4F7BA1",
"b. c #887D83",
"n. c #7F8085",
"m. c #768391",
"M. c #5D86AC",
"N. c #628BAF",
"B. c #7099B0",
"V. c #6996AE",
"C. c #72ABBB",
"Z. c #5FA6CA",
"A. c #5CACD4",
"S. c #5AAEDB",
"D. c #56ADD9",
"F. c #57B1DD",
"G. c #59B2DD",
"H. c #6CABCD",
"J. c #65A8C8",
"K. c #77AAC6",
"L. c #68B2C9",
"P. c #66AED2",
"I. c #63B1D9",
"U. c #68B4D8",
"Y. c #73BBD1",
"T. c #5AB6E2",
"R. c #5CB9E5",
"E. c #57B5E1",
"W. c #64BEEB",
"Q. c #69BEE3",
"!. c #7EC3DC",
"~. c #69C0ED",
"^. c #67C0EC",
"/. c #839681",
"(. c #A08D82",
"). c #AD9383",
"_. c #A59082",
"`. c #B59683",
"'. c #BF9A80",
"]. c #8EAE9D",
"[. c #9AAD95",
"{. c #9CB499",
"}. c #A0BA9F",
"|. c #A1AA82",
" X c #97BAA6",
".X c #82AAB7",
"XX c #86BAB4",
"oX c #C59E82",
"OX c #CA9F81",
"+X c #CDA285",
"@X c #CBA389",
"#X c #D6A98A",
"$X c #DBAA8B",
"%X c #D4A787",
"&X c #DBAF90",
"*X c #E3B08E",
"=X c #E4B290",
"-X c #EAB693",
";X c #F0BB96",
":X c #81C3D9",
/* pixels */
"                                                                ",
"                                    7.                          ",
"                              4.6.i.6.6.i.4.                    ",
"                            .X{.}.].]. X}.[..X                  ",
"                    K.Y.H.U.U.S.A.S.E.S.S.S.I.P.H.H.K.K.        ",
"                K.L.I.G.F.F.R.R.R.R.R.R.R.R.T.T.S.A.A.J.K.      ",
"                P.G.F.R.R.^.^.^.W.~.~.~.W.W.W.R.T.T.S.D.A.C.    ",
"              J.F.F.R.U.^.Z.U.!.:X:X:X:X:X!.Y.Z.P.U.E.D.D.Z.B.  ",
"              A.P.Y.XX X}.P ) |.1.p.p.p.p.1.%.K %. XXXC.C.Z.V.  ",
"            |.2.2.5.6.6.u.9.| 6 ' 4.e.e.+.9 U =.w.6.7.5.4.2.$.  ",
"            +.4.8.e.*Xr.,.;.I V C  .;.&.L V C  .;.0.r.t.8.4.+.  ",
"            | } o.:.>.%.! E z x Y T  .~ T f j z Y ! @.:.=.} | %.",
"            L ] X.} Q a.a.f.k.k.f.a.n.j.d.d.k.a.s.s.N I | ] I   ",
"            @.oXOX0.! k.M.z.j.N.N.M.c.h.v.M.h.h.l.v.k.%.0.,.;.  ",
"            `.&X-X=XC 1 c.C = V ) c.).H B m.B = V Q x.;.=X#X>.  ",
"            ).#X=X-X[ @ 3 < < < 1 J *X*.1 3 < @ # @ 4 ,.$X+X`.  ",
"  &           @X$X=Xq.[ 2 2 2 2 G 0.;X-Xo.2 2 1 , 2 } $X$XoX_.  ",
"  & &         `.OX#X$XOXo.[ [ o.oX#X$X$X$X<.} [ } *.+X@XoX`.(.  ",
"    & &         `.oX@X#X+XOXOX+X$X%X%X%X#X%XOX0.oXoXoXoX`._.    ",
"      & &         ....-.>.>.`.>.>.-.-.*.:.>.>.>.:.;.;...(.      ",
"        & +       e s S W / / ^ ^  . ./  ./ / / ~ S B : q       ",
"          & + j k p u y a k l l l a x e p l k a a u w w t y     ",
"          & + 6 T p a k c v v v b b l ; a a b S Z Z f u f Z '   ",
"        + . 5 O.A a k c v v R g.g.g.g.i Y g.R J U H f g u ' _   ",
"              F y j l c v n E g.j.j.j.f j g.M Y 7 6 g g y V 8   ",
"              d p k l c c b R a.g.R M q y n v D ' 7 g g y i     ",
"              A p g g l c h c v c c v w u l h g B d g y u :     ",
"                d t y g g g g g a a t % t a a y y y y w r d     ",
"                  r ; ; ; - - 0 0 0 0 $ 0 0 % ; % % % : :       ",
"                  3 # # # # O X X X X X X O * # O O O >         ",
"                                                                ",
"                                                                "
};
