/* XPM */
static char *e2ccdf2ad7374b33f73bdf92f270b12ahZSTGBZLqdnrzL8a[] = {
/* columns rows colors chars-per-pixel */
"32 32 133 2 ",
"   c None",
".  c #000000",
"X  c #0A0503",
"o  c #130A06",
"O  c #170D08",
"+  c #190E09",
"@  c #1F120D",
"#  c #22140E",
"$  c #251710",
"%  c #2B1B14",
"&  c #301F17",
"*  c #312017",
"=  c #342219",
"-  c #3A261C",
";  c #3E281F",
":  c #3F2A20",
">  c #442D23",
",  c #4A3126",
"<  c #4E3429",
"1  c #51362A",
"2  c #55392C",
"3  c #593C2F",
"4  c #5D3F31",
"5  c #5E4032",
"6  c #634335",
"7  c #684737",
"8  c #694738",
"9  c #6C4A3A",
"0  c #724E3E",
"q  c #75503F",
"w  c #775140",
"e  c #7B5443",
"r  c #815946",
"t  c #865C49",
"y  c #895F4B",
"u  c #8D614E",
"i  c #8C614E",
"p  c #8D624E",
"a  c #8E624E",
"s  c #8F634E",
"d  c #8F634F",
"f  c #8D614D",
"g  c #8B604C",
"h  c #90634F",
"j  c #90644F",
"k  c #91644F",
"l  c #92644F",
"z  c #92654F",
"x  c #906450",
"c  c #916450",
"v  c #916550",
"b  c #926450",
"n  c #926550",
"m  c #936550",
"M  c #936551",
"N  c #936650",
"B  c #926651",
"V  c #936651",
"C  c #946651",
"Z  c #946751",
"A  c #946652",
"S  c #956652",
"D  c #946752",
"F  c #956752",
"G  c #966752",
"H  c #976752",
"J  c #966753",
"K  c #956852",
"L  c #956853",
"P  c #966852",
"I  c #976852",
"U  c #966853",
"Y  c #976853",
"T  c #966953",
"R  c #976953",
"E  c #976954",
"W  c #986953",
"Q  c #986954",
"!  c #996954",
"~  c #986A54",
"^  c #996A54",
"/  c #996A55",
"(  c #9A6A54",
")  c #9A6A55",
"_  c #9B6A55",
"`  c #9A6B55",
"'  c #9B6B55",
"]  c #9B6B56",
"[  c #9C6B56",
"{  c #9B6C55",
"}  c #9B6C56",
"|  c #9C6C56",
" . c #9D6C56",
".. c #9C6D56",
"X. c #9D6D56",
"o. c #9C6C57",
"O. c #9D6C57",
"+. c #9C6D57",
"@. c #9D6D57",
"#. c #9E6C56",
"$. c #9E6D56",
"%. c #9E6D57",
"&. c #9E6E57",
"*. c #9F6E57",
"=. c #9E6D58",
"-. c #9F6E58",
";. c #9F6F58",
":. c #A06E57",
">. c #A06F58",
",. c #A06F59",
"<. c #A16F59",
"1. c #A17059",
"2. c #A27059",
"3. c #A2705A",
"4. c #A3705A",
"5. c #A2715A",
"6. c #A3715A",
"7. c #A4715A",
"8. c #A4725A",
"9. c #A4725B",
"0. c #A5725B",
"q. c #A6735B",
"w. c #A6735C",
"e. c #A7735C",
"r. c #A7745C",
"t. c #A7745D",
"y. c #A8745D",
"u. c #A8755D",
"i. c #A9755D",
"p. c #AB765E",
"a. c #AC775F",
"s. c #AD785F",
"d. c #AF7A61",
/* pixels */
"                                                                ",
"                                                y d x x e.d     ",
"                                  t g d x ` <.9.9.r.1.*.9.Z     ",
"                      y d h Z *.9.u.u.r.1.<.<.#.*.U ` #.1.x     ",
"        t g j Z ` 1.u.p.u.r.1.*.*.Z h d h 9 6 7 > . y -.<.Z     ",
"  *.*.r.s.u.9.1.` <.x y r 8 8 t % @ . % y . . 4 . % j <.*.U     ",
"  u.*.x 0 r U > . r 0 . 1 . - t O % , & Z 7 ; <.3 3 <.Z ` d     ",
"  9.*.2 . 3 r o < 1 x + j 5 0 d , 6 8 3 h e * 9.6 > ` Z ` `     ",
"  9.:., 0 4 w 5 b > ` - j 9 6 U y 5 3 ` *.0 . 8 - * U *.*.-.    ",
"  ` *.0 2 d e , t % Z $ t 8 > *.1.4 > -.<.e . y 4 ; *.` } <.    ",
"  *.*.<.2 9 t : y % ` > g e 1 -.<.0 3 -.*.d # e.e * <.*.*.9.    ",
"  *.-.e b 1 e 1 ` : #.1 r e > <.1.9 - J -.w . e 5 . q 1.` e.    ",
"  ` 1.7 > * w - - O *.7 . . 1 <.` * . 0 -.> . - - . 3 ` Z -.r   ",
"  d #.e . = y 8 $ 6 E y 4 4 t U U r e d ` d d d Z ` x ` ` e.y   ",
"  x ` #.<.<.<.*.<.<.<.<.<.<.<.<.-.1.1.*.` ` ` #.Z Z ` *.} r.g   ",
"  Z 9.e 6 3 0 *.Z 1 , 8 1.t = > % < b *.: X , 9 . . w 1.` 9.d   ",
"  x 9.9 . > . g *.- . 8 1.x @ @ 3 . 5 1.7 . 9 t . % y <.#.9.h   ",
"  j 9.U > *.% q e.8 . e 1.1.8 3 d.4 % *.U . t 3 = Z #.` ` <.d   ",
"  y <.d % 1 , d x - = > Z *.6 + 7 + 0 -.t + . # Z U Z Z U ` d   ",
"  h 9.` ; g -.-.x $ 3 X d 1.8 % e * 6 1.d . 6 + e <.` *.*.-.U   ",
"  d e.W = y *.*.t = *.> e e.e : d.0 $ -.<.% r t . t 1.` ` *.Z   ",
"  y u.t . 2 *.*.> . w $ . d 2 . e e . r y . < ` , . t -.` #.`   ",
"  y 9.` j x } } y w g e 7 d 9 > w J $ 8 w . . 0 $ . % -.` #.*.  ",
"  t 9.` W W U U ` ` ` ` ` ` #.#.` o.` ` ` Z x Y y y t *.-.*.1.  ",
"    Z Z ` *.<.9.e.1.9.<.*.*.` ` W W U U U U W U ` ` ` Z J E -.  ",
"                t y d d j x Z ` *.1.9.e.r.e.e.9.1.<.-.*.#.` 1.  ",
"                                        y y g d b x Z Z Z ` u.t ",
"                                                                ",
"                                                                ",
"                                                                ",
"                                                                ",
"                                                                "
};
