/* XPM */
static char *result[] = {
/* columns rows colors chars-per-pixel */
"32 32 21 1 ",
"  c #BACACB",
". c #BBCACB",
"X c #BACBCB",
"o c #BBCBCB",
"O c #BBCACC",
"+ c #BBCBCC",
"@ c #BBCCCC",
"# c #BCCCCC",
"$ c #BCCCCD",
"% c #BDCDCE",
"& c #BECDCF",
"* c #BDCECE",
"= c #BECECE",
"- c #BECECF",
"; c #BFCFCF",
": c #BFCFD0",
"> c #BFD0D0",
", c #C0D0D1",
"< c #C1D0D2",
"1 c #C1D1D2",
"2 c #C2D2D2",
/* pixels */
"11111111111111111111111111111111",
"11111111111111111111111111111111",
"11111111111111111111111111111111",
"11111111111111111111111111111111",
"11111111111111111111111111111111",
"1111,:111111111,,111111111:,1111",
"1111% -1111111,++,1111111- %1111",
"111%+++-11111,++++,11111-+++%111",
"1,$O++++-111:++++++:111-++++.$,1",
",$ +++++o-1:++++++++:1-o+++++ $,",
"$+++++++++%++++++++++%++++++++o$",
"++++++++++++++++++++++++++++++++",
"+++++$++++++++o$$o++++++++$+++++",
"++++:1%.+++++ $,,$ +++++.%1:++++",
"+++:111*.+++ $,11,$ +++.*111:+++",
"++:11111*.+.$,1111,$.+.*11111:++",
"+:1111111& $<111111<$ &1111111:+",
":111111111-,11111111,-111111111:",
"11111111111111111111111111111111",
"1111,-111111111::111111111-,1111",
"111,$ %1111111:++:1111111% $,111",
"11,$X+ %11111:++++:11111% +o$,11",
"1,$.+++ %111;++++++;111% +++o$,1",
",@.+++++ %1:++++++++:1% +++++.@,",
"$+++++++++$++++++++++$+++++++++$",
"++++++++++++++++++++++++++++++++",
"+++ $-++++++++.%% ++++++++-$ +++",
"++o$,2:++++++ %11% ++++++-1,$o++",
"+.$,111:++++ %1111%o++++-111,$.+",
"o$,11111>++o%111111-.++:11111,$.",
"#,1111111,+%11111111=+:1111111,$",
",111111111,1111111111,111111111,"
};
