/* XPM */
static char *c39f8c97fe78481ed37f766a85c94c54G0aAsPnGohU7PYRg[] = {
/* columns rows colors chars-per-pixel */
"32 32 134 2 ",
"   c None",
".  c black",
"X  c #230000",
"o  c #280A00",
"O  c #3F0000",
"+  c #3D2E28",
"@  c #430000",
"#  c #490000",
"$  c #510000",
"%  c #510B00",
"&  c #5B1200",
"*  c #631700",
"=  c #5B2501",
"-  c #412010",
";  c #5D2C18",
":  c #612E1B",
">  c #6A331F",
",  c #5B2C23",
"<  c #47322A",
"1  c #4B362C",
"2  c #49392F",
"3  c #52352B",
"4  c #5E3C32",
"5  c #612E21",
"6  c #612C29",
"7  c #653424",
"8  c #633A2D",
"9  c #6B392A",
"0  c #753E2D",
"q  c #7B3C2A",
"w  c #7F4E27",
"e  c #6B4034",
"r  c #65473C",
"t  c #6E4438",
"y  c #7C4231",
"u  c #7E493B",
"i  c #744F46",
"p  c #7B5C55",
"a  c #860000",
"s  c #8D1500",
"d  c #AD3D06",
"f  c #843C2A",
"g  c #C43C00",
"h  c #BC4717",
"j  c #92462F",
"k  c #894430",
"l  c #864D3F",
"z  c #8C4938",
"x  c #A34728",
"c  c #B74922",
"v  c #BB4B22",
"b  c #B04B28",
"n  c #BE4C2A",
"m  c #B04F30",
"M  c #CD4601",
"N  c #C34508",
"B  c #CF4B0F",
"V  c #D54500",
"C  c #D34B06",
"Z  c #DD4E05",
"A  c #D54C0A",
"S  c #DA4E09",
"D  c #DF500C",
"F  c #CC4B14",
"G  c #C44B1C",
"H  c #D04D12",
"J  c #DC5219",
"K  c #E84200",
"L  c #EB4A00",
"P  c #E35103",
"I  c #EA5303",
"U  c #E3520B",
"Y  c #ED560C",
"T  c #F45707",
"R  c #F65805",
"E  c #F1570D",
"W  c #F4580D",
"Q  c #FD5C0D",
"!  c #E75512",
"~  c #EC5612",
"^  c #E5571C",
"/  c #F35A13",
"(  c #F85B10",
")  c #FF610E",
"_  c #C44D23",
"`  c #C14E28",
"'  c #CE5225",
"]  c #C3502A",
"[  c #C8512B",
"{  c #C45F3A",
"}  c #82574E",
"|  c #876E4B",
" . c #9B614B",
".. c #8A706B",
"X. c #9C7E78",
"o. c #B07D62",
"O. c #A58F6F",
"+. c #AD958C",
"@. c #B99E81",
"#. c #AA9692",
"$. c #B4A19D",
"%. c #C7AC8C",
"&. c #D2A785",
"*. c #C5A892",
"=. c #CFAF93",
"-. c #D2B191",
";. c #E3C39E",
":. c #ECC89F",
">. c #EDCBA2",
",. c #F1CEA6",
"<. c #EED1AC",
"1. c #F1D0A9",
"2. c #F8D6AC",
"3. c #E7D0B9",
"4. c #F2D5B3",
"5. c #F6D9B5",
"6. c #FAD9B3",
"7. c #F2D7B8",
"8. c #FADCBB",
"9. c #D0C8C5",
"0. c #D5CDCC",
"q. c #DBD5D4",
"w. c #F8E1CC",
"e. c #F3E3D3",
"r. c #E6E5E4",
"t. c #EAE6E5",
"y. c #EBEBEA",
"u. c #F9EFE5",
"i. c #F6EFE8",
"p. c #F7F2ED",
"a. c #FCF6EE",
"s. c #F4F4F3",
"d. c #FBF6F2",
"f. c #FEFDFD",
/* pixels */
"                                                                ",
"                        E W E W W E E E                         ",
"                    E Q Q W W W W W Q Q E E                     ",
"                  W Q E W E W E W E E E W Q E                   ",
"                Q W E E E / / / / / E E E T ) E                 ",
"              E W E / T W / L K L W ( T E E E ) E               ",
"            E Q E E W Y [ s  .&.o.a n ^ W E T E Q               ",
"            Q E E R A q . | ;.4.<.O.. 5 G Y E E Q E             ",
"          E Q W W B 4 X +.w.5.>.,.8.*.@ < h T E W E             ",
"          E W W I z # X.f.f.d.7.e.f.f.$.# k Z Y E Q             ",
"          E W T F u # 0.f.f.f.p.f.f.f.r.& 0 F Y W ) E           ",
"          W ( I ` > 7 r.f.r.y.f.s.r.f.f.p = G I E Q Y           ",
"          E ( I [ : 9 t.f.f.f.d.f.d.f.f...% ` I / ( E           ",
"          Y W I G t # q.f.f.d.4.p.f.f.s.i : _ I Y ) Y           ",
"          E Q Y C } @ #.f.u.4.>.7.i.f.9.$ e F Y E Q             ",
"          E Q E P c 1 * -.2.>.<.>.6.3.} - x U U W E             ",
"            Q W U Z b + = -.6.<.6.;.w o j U S E Q E             ",
"            Y Q E D P ' f , @.<.%.r , m Y S Y E Q               ",
"              W E E D Z ~ Z V { V V ^ U S Y W Q Y               ",
"                Q E / Y S U U g Z ! Z U E E Q E                 ",
"              E W T E E W E S H S Y E W E E W E                 ",
"            W ) E Y E Y E E Y U U / E Y E Y E ( E               ",
"        3 v Q W W E Y Y Y Y E E Y Y Y Y Y Y E E Q J 9           ",
"        9 1 G W E W E E E Y Y U U Y Y E E W E T ~ f 8 9         ",
"      9 0 8 f   E Q E E E E W U U W E E E W /     y 9 y 9       ",
"      9 9 9     E W E E / E W U U W E E E E Q       9 9         ",
"                Q W E E Y E W U U E E E E E Q E                 ",
"                ( E W E E E E U U W E E E W ) E                 ",
"                  Y E Y T E E U U W Y Y E E Y                   ",
"                  Q Q W W W W Y Y W W W W W                     ",
"                  N U A S S S S S S S S S U d                   ",
"                                                                "
};
