/* XPM */
static char *bc74b0738028461ba9da081fa542b6ecn53ulqHXrNVlNJLX[] = {
/* columns rows colors chars-per-pixel */
"32 32 2 1 ",
"  c None",
". c green",
/* pixels */
"                                ",
" ..............  .............. ",
" ..............  .............. ",
" ..............  .............. ",
" ..............  .............. ",
" ..............  .............. ",
" ..............  .............. ",
"                                ",
"                                ",
"......  ...............  .......",
"......  ...............  .......",
"......  ...............  .......",
"......  ...............  .......",
"......  ...............  .......",
"......  ...............  .......",
"                                ",
"                                ",
" ..............  .............. ",
" ..............  .............. ",
" ..............  .............. ",
" ..............  .............. ",
" ..............  .............. ",
" ............... .............. ",
"                                ",
"                                ",
"......  ...............  .......",
"......  ...............  .......",
"......  ...............  .......",
"......  ...............  .......",
"......  ...............  .......",
"......  ...............  .......",
"                                "
};
